<?xml version="1.0" encoding="UTF-8" standalone="no"?>
<!-- Created with Inkscape (http://www.inkscape.org/) -->

<svg
   width="62mm"
   height="14mm"
   viewBox="0 0 61.999998 14"
   version="1.1"
   id="svg1"
   inkscape:version="1.4.2 (ebf0e940, 2025-05-08)"
   sodipodi:docname="logo-light.svg"
   xmlns:inkscape="http://www.inkscape.org/namespaces/inkscape"
   xmlns:sodipodi="http://sodipodi.sourceforge.net/DTD/sodipodi-0.dtd"
   xmlns="http://www.w3.org/2000/svg"
   xmlns:svg="http://www.w3.org/2000/svg">
  <sodipodi:namedview
     id="namedview1"
     pagecolor="#000000"
     bordercolor="#000000"
     borderopacity="0.25"
     inkscape:showpageshadow="2"
     inkscape:pageopacity="0.0"
     inkscape:pagecheckerboard="false"
     inkscape:deskcolor="#d1d1d1"
     inkscape:document-units="mm"
     inkscape:zoom="2.7646296"
     inkscape:cx="133.65262"
     inkscape:cy="19.170742"
     inkscape:window-width="1440"
     inkscape:window-height="785"
     inkscape:window-x="0"
     inkscape:window-y="25"
     inkscape:window-maximized="1"
     inkscape:current-layer="layer1" />
  <defs
     id="defs1" />
  <g
     inkscape:label="Layer 1"
     inkscape:groupmode="layer"
     id="layer1">
    <path
       id="rect1"
       style="font-variation-settings:'opsz' 22, 'wght' 800;fill:#00bf63;stroke-width:0.987803;stroke-linecap:round;stroke-linejoin:round;stroke-miterlimit:2.4;paint-order:stroke fill markers"
       d="M 3.1023623,3.5 H 7.8976377 C 8.5083464,3.5 9,3.9916536 9,4.6023623 V 9.3976377 C 9,10.008346 8.5083464,10.5 7.8976377,10.5 H 3.1023623 C 2.4916536,10.5 2,10.008346 2,9.3976377 V 4.6023623 C 2,3.9916536 2.4916536,3.5 3.1023623,3.5 Z" />
    <path
       d="M 16.329,11.843955 13,2.1560449 h 2.555268 l 1.358908,4.2587793 q 0.318596,1.0403125 0.637192,2.1651504 0.325097,1.1248379 0.663199,2.3407034 h -0.682705 q 0.331599,-1.2158655 0.637191,-2.3407034 0.305592,-1.1248379 0.611184,-2.1651504 l 1.306892,-4.2587793 h 2.52926 l -3.244475,9.6879101 z m 4.472162,0 3.329,-9.6879101 h 3.081926 l 3.348506,9.6879101 H 27.946809 L 26.633414,7.5851757 Q 26.314818,6.5188554 26.002725,5.4330293 25.690631,4.3472031 25.365533,3.0793222 h 0.63069 Q 25.658121,4.3472031 25.339525,5.4330293 25.027432,6.5188554 24.695832,7.5851757 L 23.343426,11.843955 Z M 23.083348,9.9778945 V 8.1508457 h 5.19506 v 1.8270488 z m 7.758239,1.8660605 V 2.1560449 h 3.992199 q 1.124838,0 1.944084,0.4031211 0.819246,0.3966191 1.261379,1.1313398 0.448634,0.7347207 0.448634,1.7425235 0,0.9817949 -0.46814,1.7035117 -0.468141,0.7152148 -1.313395,1.105332 -0.845254,0.3836152 -2.002601,0.3836152 H 32.265514 V 6.7854355 h 2.412225 q 0.46814,0 0.806242,-0.1690508 0.344604,-0.1690507 0.526658,-0.4746425 0.188557,-0.3055918 0.188557,-0.7087129 0,-0.416125 -0.188557,-0.7152149 Q 35.828585,4.4122226 35.483981,4.2431718 35.145879,4.0741211 34.671237,4.0741211 H 33.18229 v 7.7698339 z m 5.42913,0 -2.158648,-4.3888183 h 2.418726 l 2.210665,4.3888183 z m 2.953295,0 V 2.1560449 h 3.459039 l 1.248375,3.8036426 q 0.104031,0.3446035 0.247074,0.8452539 0.143043,0.5006504 0.292588,1.0533164 0.149545,0.546164 0.279584,1.0468144 0.130039,0.5006504 0.208062,0.838752 h -0.591677 q 0.07802,-0.3381016 0.20156,-0.838752 0.130039,-0.5006504 0.279584,-1.0468144 0.149545,-0.552666 0.286086,-1.0533164 0.143043,-0.5006504 0.240572,-0.8452539 l 1.235372,-3.8036426 h 3.465541 v 9.6879101 h -2.29519 V 7.6501953 q 0,-0.3250977 0.013,-0.8127442 0.013,-0.4876464 0.02601,-1.0533164 0.01951,-0.5656699 0.03251,-1.1443437 0.01951,-0.5786738 0.01951,-1.0923281 h 0.273082 Q 48.001649,4.087125 47.8391,4.6723008 47.676551,5.2574765 47.520504,5.8231465 47.370959,6.3823144 47.234418,6.856957 47.097877,7.3250976 46.993846,7.6501953 L 45.602428,11.843955 H 43.710359 L 42.292934,7.6501953 Q 42.195404,7.3250976 42.052361,6.856957 41.909318,6.3823144 41.753272,5.8231465 41.597225,5.2574765 41.428174,4.6723008 41.265625,4.087125 41.11608,3.5474629 h 0.312094 q 0.0065,0.5136543 0.01951,1.0923281 0.013,0.5786738 0.02601,1.1443437 0.0195,0.56567 0.03251,1.0533164 0.013,0.4876465 0.013,0.8127442 v 4.1937597 z m 16.074238,0.156047 q -1.313394,0 -2.36671,-0.591678 -1.046815,-0.59818 -1.657999,-1.7165154 -0.611183,-1.118336 -0.611183,-2.6853067 0,-1.5799746 0.611183,-2.6983105 0.611184,-1.1248379 1.657999,-1.7165156 1.053316,-0.5916778 2.36671,-0.5916778 1.313395,0 2.360209,0.5916778 1.046815,0.5916777 1.657998,1.7165156 0.611184,1.1183359 0.611184,2.6983105 0,1.5734727 -0.611184,2.6918086 -0.611183,1.1183355 -1.657998,1.7100135 -1.046814,0.591678 -2.360209,0.591678 z m 0,-2.0416134 q 0.695709,0 1.202862,-0.3446035 0.513654,-0.3511054 0.793238,-1.0078027 0.279584,-0.6631992 0.279584,-1.5994805 0,-0.9427832 -0.279584,-1.6059824 Q 57.014766,4.7373203 56.501112,4.3927168 55.993959,4.0416113 55.29825,4.0416113 q -0.689207,0 -1.202861,0.3511055 -0.513654,0.3446035 -0.79974,1.0078027 -0.279584,0.6631992 -0.279584,1.6059824 0,0.9362813 0.279584,1.5994805 0.286086,0.6566973 0.79974,1.0078027 0.513654,0.3446035 1.202861,0.3446035 z"
       id="text1"
       style="font-size:13.316px;line-height:0;font-family:Inter;-inkscape-font-specification:'Inter, @opsz=32,wght=800';font-variation-settings:'opsz' 32, 'wght' 800;text-align:center;letter-spacing:-0.375705px;word-spacing:0px;text-anchor:middle;stroke-width:1.15784;stroke-linecap:round;stroke-linejoin:round;stroke-miterlimit:2.4;paint-order:stroke fill markers"
       aria-label="VARMO" />
  </g>
</svg>
